# xmcd
#
# Track frame offsets: 
#        150
#        6068
#        19643
#        31440
#        44795
#        57237
#        62587
#        107868
#        145788
#        183080
#        212838
#        226973
#        238272
#        289915
#
# Disc length: 3913 seconds
#
# Revision: 1
# Processed by: cddbd v1.5.2PL0 Copyright (c) Steve Scherf et al.
# Submitted via: ExactAudioCopy v1.0b3
#
DISCID=c70f470e
DTITLE=Various Artist - Apoldaer Weltglockengeläut
DYEAR=1999
DGENRE=Easy Listening
TTITLE0=Die Glocke von Apolda - Die Glocke von Apolda
TTITLE1=Hans Tutschku - Glockenklangfeld
TTITLE2=Die Glocken von Tamunda - Die Glocken von Tamunda 1
TTITLE3=Mitote - Vier Elemente
TTITLE4=Die Glocken von Tamunda - Die Glocken von Tamunda 2
TTITLE5=Glockenspiel Buenos Aires - El dia que me quieras
TTITLE6=Wolfram Spyra - Iceland
TTITLE7=Star Sounds Orchestra - Knabenschule
TTITLE8=Star Sounds Orchestra - Der Zahn der Zeit
TTITLE9=Star Sounds Orchestra - Der ewige Himmel
TTITLE10=Axel Rudolph - Dom-Hall-Projekt
TTITLE11=Klangwerkstatt Weimar - Umspannungswerk
TTITLE12=Kölner Dom - St. Petersglocke
TTITLE13=Carrillon Philadelphia - Lobet den Herr'n
EXTD=YEAR: 1999
EXTT0=
EXTT1=
EXTT2=
EXTT3=
EXTT4=
EXTT5=
EXTT6=
EXTT7=
EXTT8=
EXTT9=
EXTT10=
EXTT11=
EXTT12=
EXTT13=
PLAYORDER=
